<svg width="176" height="49" viewBox="0 0 176 49" fill="none" xmlns="http://www.w3.org/2000/svg">
<path d="M84.2941 15.75C84.9182 15.75 85.5166 15.9871 85.9579 16.409C86.3992 16.831 86.6471 17.4033 86.6471 18C86.6471 17.4033 86.895 16.831 87.3362 16.409C87.7775 15.9871 88.376 15.75 89 15.75C88.376 15.75 87.7775 15.5129 87.3362 15.091C86.895 14.669 86.6471 14.0967 86.6471 13.5C86.6471 14.0967 86.3992 14.669 85.9579 15.091C85.5166 15.5129 84.9182 15.75 84.2941 15.75ZM84.2941 2.25C84.9182 2.25 85.5166 2.48705 85.9579 2.90901C86.3992 3.33097 86.6471 3.90326 86.6471 4.5C86.6471 3.90326 86.895 3.33097 87.3362 2.90901C87.7775 2.48705 88.376 2.25 89 2.25C88.376 2.25 87.7775 2.01295 87.3362 1.59099C86.895 1.16903 86.6471 0.596737 86.6471 0C86.6471 0.596737 86.3992 1.16903 85.9579 1.59099C85.5166 2.01295 84.9182 2.25 84.2941 2.25ZM76.0588 15.75C76.0588 13.9598 76.8025 12.2429 78.1263 10.977C79.4501 9.71116 81.2455 9 83.1176 9C81.2455 9 79.4501 8.28884 78.1263 7.02297C76.8025 5.7571 76.0588 4.04021 76.0588 2.25C76.0588 4.04021 75.3151 5.7571 73.9913 7.02297C72.6676 8.28884 70.8721 9 69 9C70.8721 9 72.6676 9.71116 73.9913 10.977C75.3151 12.2429 76.0588 13.9598 76.0588 15.75Z" fill="url(#paint0_linear_0_497)"/>
<path d="M9.93122 40.9387C8.82313 40.9387 7.79815 40.7309 6.85628 40.3154C5.91441 39.8999 5.1526 39.2211 4.57085 38.2793C4.01681 37.3374 3.73979 36.077 3.73979 34.4979V15.2588L8.9755 12.4747V33.0851C8.9755 34.2763 9.12786 35.1766 9.43258 35.7861C9.76501 36.3955 10.4022 36.7003 11.344 36.7003C11.6211 36.7003 11.9258 36.6726 12.2582 36.6171C12.6183 36.5617 13.0062 36.4786 13.4217 36.3678V40.3154C12.8399 40.537 12.2582 40.6894 11.6765 40.7725C11.0947 40.8833 10.513 40.9387 9.93122 40.9387ZM0 24.0681V20.0374H13.4217V24.0681H0Z" fill="white"/>
<path d="M26.113 40.9387C24.34 40.9387 22.8164 40.6478 21.5421 40.0661C20.2678 39.4843 19.2151 38.7087 18.3841 37.7391C17.5807 36.7418 16.9851 35.6199 16.5973 34.3733C16.2094 33.099 16.0155 31.7693 16.0155 30.3842C16.0155 29.0545 16.2094 27.7525 16.5973 26.4782C16.9851 25.2039 17.5668 24.0542 18.3425 23.0292C19.1182 22.0043 20.1154 21.187 21.3343 20.5776C22.5809 19.9404 24.063 19.6219 25.7805 19.6219C27.3873 19.6219 28.7862 19.8989 29.9774 20.4529C31.1686 20.9793 32.152 21.7272 32.9277 22.6968C33.7033 23.6387 34.2851 24.7468 34.6729 26.0211C35.0884 27.2954 35.2962 28.6528 35.2962 30.0933C35.2962 30.2872 35.2824 30.5642 35.2547 30.9244C35.2547 31.2568 35.227 31.6169 35.1716 32.0047H21.1681C21.3066 33.473 21.8468 34.581 22.7887 35.329C23.7583 36.077 24.9633 36.4509 26.4038 36.4509C27.4565 36.4509 28.4815 36.2709 29.4788 35.9107C30.476 35.5229 31.3625 34.9827 32.1382 34.2902L34.7145 37.7806C33.7449 38.5286 32.8307 39.138 31.972 39.609C31.1132 40.0799 30.2129 40.4123 29.271 40.6063C28.3568 40.8279 27.3041 40.9387 26.113 40.9387ZM30.1852 29.4284C30.2406 29.2068 30.2821 28.9852 30.3098 28.7636C30.3652 28.542 30.3929 28.3342 30.3929 28.1403C30.3929 27.5585 30.2821 27.0183 30.0605 26.5197C29.8389 25.9934 29.5342 25.5363 29.1463 25.1485C28.7585 24.7606 28.2876 24.4698 27.7335 24.2758C27.2072 24.0542 26.5977 23.9434 25.9052 23.9434C24.8802 23.9434 24.0214 24.1512 23.3289 24.5667C22.6363 24.9822 22.11 25.5224 21.7499 26.1873C21.4174 26.8244 21.2097 27.4893 21.1266 28.1818H31.9304L30.1852 29.4284Z" fill="white"/>
<path d="M37.1398 40.5232L44.1208 30.1764L37.1398 20.0374H43.2481L47.5697 26.8106L51.8912 20.0374H57.9995L50.9355 30.1764L57.9995 40.5232H51.8912L47.5697 33.6253L43.2066 40.5232H37.1398Z" fill="white"/>
<path d="M69.177 40.9387C68.0689 40.9387 67.044 40.7309 66.1021 40.3154C65.1602 39.8999 64.3984 39.2211 63.8167 38.2793C63.2626 37.3374 62.9856 36.077 62.9856 34.4979V15.2588L68.2213 12.4747V33.0851C68.2213 34.2763 68.3737 35.1766 68.6784 35.7861C69.0108 36.3955 69.648 36.7003 70.5898 36.7003C70.8669 36.7003 71.1716 36.6726 71.504 36.6171C71.8641 36.5617 72.252 36.4786 72.6675 36.3678V40.3154C72.0858 40.537 71.504 40.6894 70.9223 40.7725C70.3405 40.8833 69.7588 40.9387 69.177 40.9387ZM59.2458 24.0681V20.0374H72.6675V24.0681H59.2458Z" fill="white"/>
<path d="M76.5813 40.5232V20.0374H81.7339V40.5232H76.5813Z" fill="white"/>
<path d="M93.2906 40.5232L84.8968 20.0374H90.548L95.3682 33.7915L100.271 20.0374H105.84L97.529 40.5232H93.2906Z" fill="white"/>
<path d="M110.708 49L114.863 38.9441L107.134 20.0374H112.785L117.606 33.7915L122.509 20.0374H128.077L116.318 49H110.708Z" fill="white"/>
<path d="M139.875 40.5232L151.51 11.5605H155.541L167.175 40.5232H161.316L153.588 19.4972L145.734 40.5232H139.875ZM147.521 34.8719L149.183 30.0517H157.909L159.654 34.8719H147.521Z" fill="white"/>
<path d="M170.326 40.5232V11.5605H175.687V40.5232H170.326Z" fill="white"/>
<defs>
<linearGradient id="paint0_linear_0_497" x1="69" y1="9" x2="88.9996" y2="8.90978" gradientUnits="userSpaceOnUse">
<stop stop-color="#CE7CF5"/>
<stop offset="1" stop-color="#5B20FF"/>
</linearGradient>
</defs>
</svg>
